<?xml version="1.0" standalone="no"?><!DOCTYPE svg PUBLIC "-//W3C//DTD SVG 1.1//EN" "http://www.w3.org/Graphics/SVG/1.1/DTD/svg11.dtd"><svg t="1732762447459" class="icon" viewBox="0 0 1024 1024" version="1.1" xmlns="http://www.w3.org/2000/svg" p-id="25115" xmlns:xlink="http://www.w3.org/1999/xlink" width="200" height="200"><path d="M206.9 297c0 31.5 6.2 63 18.1 92 11.9 29.1 29.5 55.8 51.5 78 22 22.2 48.3 40.1 77.1 52.1 28.7 12.1 59.8 18.3 90.9 18.3 31.1 0 62.1-6.3 90.9-18.3 28.7-12 55.1-29.9 77-52.1 22-22.2 39.6-48.9 51.5-78 11.9-29.1 18.1-60.5 18.1-92s-6.2-62.9-18.1-92c-11.9-29.1-29.5-55.7-51.5-78-22-22.2-48.3-40.1-77-52.1-28.7-12.1-59.8-18.3-90.9-18.3-31.1 0-62.1 6.3-90.9 18.3-28.7 12-55.1 29.9-77.1 52.1-22 22.3-39.6 49-51.5 78-11.9 29-18.1 60.5-18.1 92M623 793.2c0-80.3 35.7-151.4 90.6-195.4v-0.1c-28.6-25-60-46.2-93.7-62.9h-0.1c-48.8 45.4-112 72.8-180.9 72.8-69 0-132.1-27.4-180.9-72.8h-0.1C117.2 604.5 15.7 752.7 0 928.7c0 0 0 0.1 0.1 0.1h660.7c0.1 0 0.1-0.1 0.1-0.1C637 890 623 843.4 623 793.2m217.8-195.7c-101.2 0-183.2 83.1-183.2 185.5 0 102.5 82 185.5 183.2 185.5S1024 885.4 1024 783s-82-185.5-183.2-185.5m87.8 215.6h-65c-0.1 0-0.1 0-0.1 0.1v68.1c0 14.1-10 26.3-23.3 27.6-15.3 1.5-28.3-11.2-28.3-26.9v-68.8c0-0.1 0-0.1-0.1-0.1h-65c-13.5 0-25.1-10.5-26.4-24.5-1.5-16 10.7-29.6 25.7-29.6h65.7s0.1 0 0.1-0.1v-68.1c0-14.1 10-26.3 23.4-27.6 15.3-1.5 28.3 11.2 28.3 26.9v68.8c0 0.1 0 0.1 0.1 0.1h65.7c15 0 27.2 13.6 25.7 29.6-1.4 14-13.1 24.5-26.5 24.5" fill="#1296db" p-id="25116"></path></svg>