<svg t="1732761136653" class="icon" viewBox="0 0 1024 1024" version="1.1" xmlns="http://www.w3.org/2000/svg" p-id="15854" width="200" height="200"><path d="M678.855 37.926H151.913C67.777 37.926 0 105.94 0 189.839v682.248C0 956.223 68.014 1024 151.913 1024h682.248c84.136 0 151.913-68.014 151.913-151.913v-519.21l-75.852 75.852v443.358c0 42.108-33.917 76.061-76.061 76.061H151.913c-42.108 0-76.061-33.917-76.061-76.061V189.839c0-42.108 33.917-76.061 76.061-76.061h451.09l75.852-75.852zM320.679 698.855l230.097-65.327-164.353-163.347-65.744 228.674z m614.558-447.442L770.882 88.063 409.298 447.422 573.65 610.756l361.587-359.343z m76.386-137.215L908.897 12.111c-17.02-16.917-45.53-15.996-63.686 2.041l-49.314 48.995 164.355 163.348 49.312-49.01c18.155-18.038 19.076-46.367 2.06-63.287z" p-id="15855" fill="#6492FD"></path></svg>