<?xml version="1.0" standalone="no"?><!DOCTYPE svg PUBLIC "-//W3C//DTD SVG 1.1//EN" "http://www.w3.org/Graphics/SVG/1.1/DTD/svg11.dtd"><svg t="1732762393777" class="icon" viewBox="0 0 1024 1024" version="1.1" xmlns="http://www.w3.org/2000/svg" p-id="23928" xmlns:xlink="http://www.w3.org/1999/xlink" width="200" height="200"><path d="M682.899863 309.018934c23.786063 19.988288 54.468085 31.981261 87.948468 31.981261 75.455788 0 136.619949-61.06422 136.619949-136.320125 0-75.355846-61.164162-136.320125-136.619949-136.320125-19.688464 0-38.377513 4.197541-55.267617 11.593207 13.592036 27.383955 21.187585 58.165918 21.187586 90.746828 0 53.268788-20.487995 101.840328-53.868437 138.318954zM293.028304 341.000195c33.480383 0 64.162405-11.992973 87.948467-31.981261-33.380441-36.478626-53.768495-85.050166-53.768495-138.318954 0-32.58091 7.595549-63.362873 21.187586-90.746828-16.890103-7.495608-35.579153-11.593207-55.267617-11.593207-75.455788 0-136.619949 61.06422-136.619949 136.320125-0.099941 75.255905 61.06422 136.320125 136.520008 136.320125zM804.528597 379.577591L770.848331 682.600039l-102.439977 68.260004v170.69998s44.873707 34.179973 85.349991 34.179973c39.976576 0 85.34999-34.179973 85.34999-34.179973v-204.879953l75.555729-61.663869 26.784306-240.459106s-68.459887-24.98536-136.919773-34.979504z" p-id="23929" fill="#f38f24"></path><path d="M770.848331 409.560023S634.028499 375.380051 531.988288 375.380051c-102.739801 0-238.959984 34.179973-238.959984 34.179972l34.179972 273.040016 102.340036 68.260004v238.860043s50.870193 34.080031 102.340035 34.080031c50.870193 0 102.439977-34.080031 102.439976-34.080031v-238.860043l102.340035-68.260004L770.848331 409.560023z" p-id="23930" fill="#f38f24"></path><path d="M258.948272 375.879758c-77.954324 4.097599-170.69998 33.680265-170.69998 33.680265l34.179973 238.860043 68.260004 68.260004v204.780012s44.873707 34.179973 85.34999 34.179973c39.976576 0 85.34999-34.179973 85.34999-34.179973V728.073394L293.128245 682.600039l-34.179973-306.720281zM531.988288 341.30002c94.244778 0 170.600039-76.455202 170.600039-170.60004C702.588327 76.355261 626.133125 0 531.988288 0c-94.244778 0-170.600039 76.455202-170.600039 170.69998-0.099941 94.144837 76.355261 170.600039 170.600039 170.60004z" p-id="23931" fill="#f38f24"></path></svg>