<?xml version="1.0" standalone="no"?><!DOCTYPE svg PUBLIC "-//W3C//DTD SVG 1.1//EN" "http://www.w3.org/Graphics/SVG/1.1/DTD/svg11.dtd"><svg t="1722160064654" class="icon" viewBox="0 0 1024 1024" version="1.1" xmlns="http://www.w3.org/2000/svg" p-id="1605" xmlns:xlink="http://www.w3.org/1999/xlink" width="200" height="200"><path d="M928 256H768V96c0-17.066667-14.933333-32-32-32h-640C78.933333 64 64 78.933333 64 96v640c0 17.066667 14.933333 32 32 32H256v160c0 17.066667 14.933333 32 32 32h640c17.066667 0 32-14.933333 32-32v-640c0-17.066667-14.933333-32-32-32zM128 704V128h576v128H288c-17.066667 0-32 14.933333-32 32V704H128z m768 192H320V320h576v576z" fill="#939393" p-id="1606"></path></svg>