<?xml version="1.0" standalone="no"?><!DOCTYPE svg PUBLIC "-//W3C//DTD SVG 1.1//EN" "http://www.w3.org/Graphics/SVG/1.1/DTD/svg11.dtd"><svg t="1722168213308" class="icon" viewBox="0 0 1296 1024" version="1.1" xmlns="http://www.w3.org/2000/svg" p-id="4046" xmlns:xlink="http://www.w3.org/1999/xlink" width="253.125" height="200"><path d="M297.683876 99.227959h958.119142a40.667196 40.667196 0 1 0 0-81.334393H297.683876a40.667196 40.667196 0 1 0 0 81.334393z" fill="#ffffff" p-id="4047"></path><path d="M58.560763 58.560763m-58.560763 0a58.560763 58.560763 0 1 0 117.121525 0 58.560763 58.560763 0 1 0-117.121525 0Z" fill="#ffffff" p-id="4048"></path><path d="M1255.803018 470.926132H297.683876a40.667196 40.667196 0 0 0 0 81.334392h958.119142a40.667196 40.667196 0 0 0 0-81.334392z" fill="#ffffff" p-id="4049"></path><path d="M58.560763 511.593328m-58.560763 0a58.560763 58.560763 0 1 0 117.121525 0 58.560763 58.560763 0 1 0-117.121525 0Z" fill="#ffffff" p-id="4050"></path><path d="M1255.803018 924.772041H297.683876a40.667196 40.667196 0 0 0 0 81.334393h958.119142a40.667196 40.667196 0 0 0 0-81.334393z" fill="#ffffff" p-id="4051"></path><path d="M58.560763 965.439237m-58.560763 0a58.560763 58.560763 0 1 0 117.121525 0 58.560763 58.560763 0 1 0-117.121525 0Z" fill="#ffffff" p-id="4052"></path></svg>